<?xml version="1.0" encoding="UTF-8"?>
<svg version="1.1" xmlns="http://www.w3.org/2000/svg" width="512" height="512">
<path d="M0 0 C1.57514474 -0.007021 3.15028918 -0.01410783 4.72543335 -0.02125549 C9.7323243 -0.04066063 14.73916899 -0.04568946 19.74609375 -0.046875 C20.59859333 -0.04731686 21.45109291 -0.04775871 22.32942581 -0.04821396 C47.72753362 -0.05512062 72.93510227 0.17073694 98.18359375 3.203125 C99.72117623 3.38196649 101.25877434 3.56067361 102.79638672 3.73925781 C124.74735238 6.32520002 146.49949233 9.94083323 168.18359375 14.203125 C169.1595752 14.39261719 170.13555664 14.58210937 171.14111328 14.77734375 C202.31955859 20.912699 228.45532689 38.05304073 246.37109375 64.515625 C275.23252303 108.56351954 277.24308606 183.44110969 277.38671875 234.703125 C277.39373844 236.25718719 277.40082528 237.81124907 277.40797424 239.36531067 C277.42740097 244.31125292 277.43240882 249.25714846 277.43359375 254.203125 C277.43403561 255.04528439 277.43447746 255.88744377 277.43493271 256.75512314 C277.44168332 281.27485458 277.31194322 305.66462563 274.43682861 330.0480957 C274.17097611 332.31050113 273.91672727 334.57403108 273.66357422 336.83789062 C261.66802563 442.81339258 261.66802563 442.81339258 219.25390625 476.921875 C201.62950726 490.0168483 182.75593067 495.58200219 161.55859375 499.640625 C160.78858032 499.7893103 160.01856689 499.93799561 159.22521973 500.09118652 C120.87134043 507.45615072 81.50747964 512.29862049 42.4296875 512.40625 C40.85039745 512.4132684 39.2711077 512.42035525 37.69181824 512.42750549 C32.66823933 512.44692781 27.64470641 512.45193965 22.62109375 512.453125 C21.7662011 512.45356686 20.91130844 512.45400871 20.03050995 512.45446396 C-4.30014443 512.46106456 -28.50944467 512.40509901 -52.69659424 509.45959473 C-54.95672304 509.18614849 -57.21813123 508.92580469 -59.47998047 508.66699219 C-166.09775058 496.35425126 -166.09775058 496.35425126 -197.59375 456.76953125 C-205.72553592 446.21981069 -212.64975747 435.16678984 -216.32421875 422.27734375 C-216.53622925 421.54268387 -216.74823975 420.80802399 -216.9666748 420.05110168 C-219.1665964 412.24434587 -220.81095735 404.35620525 -222.31640625 396.390625 C-222.46259399 395.62843658 -222.60878174 394.86624817 -222.75939941 394.08096313 C-230.08674094 355.72409932 -234.91152281 316.42621809 -235.01953125 277.3515625 C-235.02655164 275.7737017 -235.03363848 274.19584119 -235.04078674 272.61798096 C-235.06018698 267.60469148 -235.06522049 262.59144823 -235.06640625 257.578125 C-235.06684811 256.72462212 -235.06728996 255.87111923 -235.06774521 254.99175262 C-235.07434906 230.68049472 -235.01603056 206.49079191 -232.07287598 182.32293701 C-231.79942974 180.06280821 -231.53908594 177.80140002 -231.28027344 175.53955078 C-228.70754435 153.26112882 -225.16093931 131.20203231 -220.81640625 109.203125 C-220.62691406 108.22859375 -220.43742188 107.2540625 -220.2421875 106.25 C-214.10753403 75.06935527 -196.96849616 48.93274972 -170.50390625 31.015625 C-126.28821417 2.04425002 -51.44317501 0.1424964 0 0 Z " fill="#7148FF" transform="translate(234.81640625,-0.203125)"/>
<path d="M0 0 C0.77364812 -0.00594224 1.54729624 -0.01188449 2.34438825 -0.0180068 C4.93904756 -0.03536215 7.53352211 -0.03839563 10.12823486 -0.04138184 C11.98774611 -0.05063956 13.84725356 -0.06068906 15.70675659 -0.07147217 C20.76061326 -0.0977118 25.81441681 -0.11060847 30.86833096 -0.11949348 C34.02631533 -0.12535648 37.1842852 -0.1335664 40.34226227 -0.14250183 C50.22435144 -0.16984991 60.10640744 -0.18918394 69.98853183 -0.19690561 C81.39324251 -0.20586611 92.79747366 -0.24095877 104.20203853 -0.2989068 C113.01916636 -0.3421514 121.83615933 -0.36231475 130.65339208 -0.36498785 C135.91874071 -0.36708323 141.18363852 -0.37888208 146.44887543 -0.41462708 C151.40339577 -0.44760826 156.35712693 -0.45189116 161.31171799 -0.43434906 C163.12734721 -0.43280928 164.94301902 -0.44148158 166.75854111 -0.46126556 C183.33093915 -0.63122637 183.33093915 -0.63122637 189.01079559 4.67794704 C194.19643656 10.84026408 194.92880191 15.5805905 194.75030518 23.58947754 C194.74464539 24.55619888 194.7389856 25.52292023 194.7331543 26.51893616 C194.71088549 29.58593698 194.66070666 32.65174015 194.60968018 35.71838379 C194.58960291 37.80625746 194.57135429 39.89414957 194.55499268 41.98205566 C194.51105177 47.08212171 194.44209 52.18130017 194.35968018 57.28088379 C195.88721924 57.24160767 195.88721924 57.24160767 197.44561768 57.20153809 C201.25479822 57.1104522 205.06388426 57.05342524 208.87384033 57.00622559 C210.51690911 56.98121324 212.15986811 56.94719152 213.80255127 56.90368652 C230.28756466 56.47829911 230.28756466 56.47829911 236.01055908 60.94787598 C241.13174324 66.00789507 243.56653766 69.87787961 243.6529541 77.14736938 C243.65204773 77.92458344 243.65114136 78.70179749 243.65020752 79.50256348 C243.65692474 80.32910431 243.66364197 81.15564514 243.67056274 82.00723267 C243.68955606 84.73913594 243.69346796 87.47079359 243.69561768 90.20275879 C243.70204593 92.10601909 243.70877431 94.0092784 243.71578979 95.91253662 C243.72776679 99.90383188 243.73147031 103.89504058 243.73028564 107.88635254 C243.73008272 112.98848484 243.75735557 118.09005848 243.79183006 123.19205856 C243.8141259 127.12472049 243.81812232 131.0572487 243.81706619 134.98996735 C243.81941923 136.87014944 243.82822597 138.75033538 243.84373093 140.63045502 C243.86344028 143.26790317 243.85753329 145.90415647 243.84552002 148.54162598 C243.85675903 149.3107431 243.86799805 150.07986023 243.87957764 150.87228394 C243.80938813 156.97034517 242.14937968 162.25436322 237.94775963 166.81266403 C232.4444162 171.65816691 227.56973547 172.57880106 220.43389893 172.47619629 C219.31251274 172.47195145 219.31251274 172.47195145 218.16847229 172.46762085 C215.79454138 172.45647848 213.42099593 172.43138541 211.04718018 172.40588379 C209.43195127 172.39584628 207.81671642 172.38672178 206.20147705 172.37854004 C202.25406424 172.35655868 198.30693743 172.32207036 194.35968018 172.28088379 C194.36336735 172.91257225 194.36705452 173.54426071 194.37085342 174.19509125 C194.45930438 189.58641447 194.52543819 204.97764893 194.56692886 220.36916351 C194.5875283 227.81248621 194.61559844 235.25563895 194.66143799 242.69885254 C194.70138639 249.18859935 194.72713203 255.67822303 194.73603415 262.16808939 C194.74123547 265.60246435 194.75340485 269.03648714 194.7826004 272.4707489 C194.81166949 276.31066707 194.8156345 280.14985753 194.81378174 283.98986816 C194.82816284 285.12059753 194.84254395 286.2513269 194.85736084 287.4163208 C194.81718173 295.12055412 193.70223392 300.01495855 188.95521927 306.07332325 C182.36922124 312.47951251 172.66784685 311.11161579 164.13702393 311.04138184 C162.27691627 311.04788037 160.41681607 311.0569452 158.55673218 311.06837463 C153.51937775 311.09140572 148.48278341 311.07676601 143.44545364 311.05390525 C138.16677051 311.03495409 132.88813724 311.04615313 127.60943604 311.05281067 C118.74578821 311.05914637 109.88244398 311.04090652 101.01885986 311.00817871 C90.78036749 310.97068613 80.54245018 310.97246446 70.30392742 310.99521989 C60.44313656 311.01618909 50.58255766 311.00888339 40.72177124 310.98890114 C36.53052698 310.98092738 32.3394626 310.98289198 28.14822388 310.99292564 C23.21004764 311.00349798 18.27253937 310.989289 13.33446884 310.95618248 C11.52532644 310.94799381 9.71612263 310.94823743 7.90698624 310.95766068 C-8.57050086 311.03404256 -8.57050086 311.03404256 -14.29292297 306.71143818 C-16.71331068 304.14167096 -18.13434156 301.47355772 -19.64031982 298.28088379 C-19.97031982 297.62088379 -20.30031982 296.96088379 -20.64031982 296.28088379 C-20.73207017 294.15671379 -20.75782676 292.02958924 -20.75384521 289.90344238 C-20.75399124 289.2496611 -20.75413727 288.59587982 -20.75428772 287.92228699 C-20.75359018 285.75793152 -20.74580522 283.59366175 -20.73797607 281.42932129 C-20.73611133 279.93002367 -20.73468769 278.43072545 -20.73368835 276.931427 C-20.72986761 272.98256757 -20.7200411 269.03374483 -20.70898438 265.0848999 C-20.69876074 261.05648291 -20.69418869 257.02806001 -20.68914795 252.99963379 C-20.67841845 245.09336694 -20.66134733 237.18712993 -20.64031982 229.28088379 C-21.5892511 229.13075333 -22.53818237 228.98062286 -23.51586914 228.82594299 C-27.57486233 228.11785321 -30.74375544 226.5715487 -34.39031982 224.71838379 C-35.09406738 224.36195801 -35.79781494 224.00553223 -36.52288818 223.63830566 C-50.51549479 216.33474584 -61.37508574 205.38709332 -66.67938232 190.33166504 C-70.26240217 177.52320624 -69.23073202 166.52961369 -63.32000732 154.62072754 C-54.76820981 139.5032057 -40.88130129 129.10570836 -24.64031982 123.28088379 C-23.32031982 123.28088379 -22.00031982 123.28088379 -20.64031982 123.28088379 C-20.644007 122.72650131 -20.64769417 122.17211884 -20.65149307 121.60093689 C-20.73998042 108.08730876 -20.80583982 94.57373165 -20.84756851 81.05987549 C-20.86842792 74.52454825 -20.89671625 67.98943038 -20.94207764 61.45422363 C-20.98559297 55.14537502 -21.00946932 48.8367276 -21.0198288 42.52774048 C-21.02720986 40.12282139 -21.04162333 37.7179131 -21.06324005 35.31307983 C-21.0923486 31.94012808 -21.09627257 28.56800379 -21.09442139 25.19494629 C-21.11599304 23.70924385 -21.11599304 23.70924385 -21.13800049 22.19352722 C-21.1016424 16.05650242 -20.16880821 11.39281231 -16.64031982 6.28088379 C-11.35447228 1.25932862 -7.18182865 -0.01723392 0 0 Z " fill="#FCFBFF" transform="translate(168.64031982421875,100.7191162109375)"/>
<path d="M0 0 C0.74788552 -0.00623996 1.49577104 -0.01247993 2.26631975 -0.01890898 C4.77385459 -0.03487151 7.28042172 -0.02222259 9.78796387 -0.00964355 C11.58500232 -0.01506325 13.38203632 -0.02218504 15.17906189 -0.03088379 C20.06127985 -0.04913831 24.94316018 -0.04204083 29.82538414 -0.02936745 C34.93112483 -0.01925081 40.03683632 -0.02862941 45.14257812 -0.03491211 C53.71729735 -0.04219241 62.29187883 -0.03259076 70.86657715 -0.0135498 C80.78462338 0.00821965 90.70234072 0.00116855 100.62037897 -0.02085543 C109.13088375 -0.03899851 117.64128944 -0.04157309 126.15180731 -0.03110075 C131.23692562 -0.02485982 136.32188926 -0.02404666 141.40699768 -0.0372467 C146.18741844 -0.0487887 150.96741457 -0.04080973 155.74778938 -0.01766968 C157.5037929 -0.01237374 159.25983205 -0.01391145 161.01582146 -0.02272034 C163.4100397 -0.03362492 165.80289076 -0.01997536 168.19702148 0 C169.24351702 -0.01338433 169.24351702 -0.01338433 170.31115389 -0.02703905 C173.67943096 0.02760592 175.3441878 0.30882801 178.03104019 2.41233444 C179.79958664 4.77675919 180.08857995 5.81232839 180.0526123 8.72570801 C180.05231018 9.54625671 180.05200806 10.36680542 180.05169678 11.21221924 C180.03105164 12.08839905 180.01040649 12.96457886 179.98913574 13.86730957 C179.98347595 14.77168762 179.97781616 15.67606567 179.97198486 16.60784912 C179.94962322 19.4917531 179.8994276 22.37440718 179.84851074 25.25793457 C179.82844545 27.21494786 179.81019473 29.17198065 179.79382324 31.12902832 C179.74975913 35.92247746 179.68073326 40.71499422 179.59851074 45.50793457 C178.78942261 45.5115802 177.98033447 45.51522583 177.14672852 45.51898193 C169.49655931 45.55695503 161.84687209 45.61391242 154.19701385 45.69183731 C150.26474922 45.73123314 146.33270587 45.76345992 142.40026855 45.77893066 C138.60039919 45.79414986 134.80113849 45.82868694 131.00154114 45.87624359 C129.55684215 45.89100354 128.11205624 45.89897248 126.6672821 45.89981842 C115.41888722 45.70998759 115.41888722 45.70998759 105.59851074 50.50793457 C101.09335561 55.89749743 99.86585465 60.59432238 99.96740723 67.49084473 C99.96025192 68.35044296 99.95309662 69.2100412 99.94572449 70.09568787 C99.92893053 72.91334537 99.94818159 75.72939107 99.96960449 78.54699707 C99.96877509 80.51659272 99.96631301 82.4861883 99.96229553 84.45578003 C99.9594441 88.57298751 99.97407747 92.68964899 100.00158691 96.8067627 C100.03571333 102.07720595 100.02963024 107.3466763 100.01092434 112.61716652 C100.00034529 116.68018674 100.00929969 120.74298143 100.02430916 124.80598068 C100.02948174 126.74919337 100.02902041 128.69242969 100.02276421 130.63563919 C100.01729927 133.35221111 100.03772598 136.06739936 100.06506348 138.78381348 C100.0585376 139.58188919 100.05201172 140.3799649 100.04528809 141.20222473 C100.13432832 146.41923543 101.19789836 149.34284495 104.59851074 153.50793457 C110.74797271 159.184361 116.52787666 159.91243147 124.59851074 160.50793457 C124.61309326 161.06779053 124.62767578 161.62764648 124.6427002 162.20446777 C124.71722426 164.74381594 124.81386656 167.28185535 124.91101074 169.82043457 C124.93356934 170.70150879 124.95612793 171.58258301 124.97937012 172.49035645 C125.01481934 173.33791504 125.05026855 174.18547363 125.08679199 175.05871582 C125.11297607 175.83900146 125.13916016 176.61928711 125.1661377 177.42321777 C125.70050018 179.99968377 126.54053207 180.91012118 128.59851074 182.50793457 C130.98225351 183.17078023 130.98225351 183.17078023 133.59851074 182.50793457 C135.69660036 180.92027128 137.43892229 179.40994678 139.28601074 177.57043457 C140.34033775 176.56354654 141.39503142 175.55704233 142.45007324 174.55090332 C143.2375293 173.78785889 143.2375293 173.78785889 144.04089355 173.00939941 C146.37616094 170.75831878 148.76280874 168.56663463 151.16101074 166.38293457 C152.33856934 165.29625488 152.33856934 165.29625488 153.53991699 164.18762207 C155.59851074 162.50793457 155.59851074 162.50793457 158.59851074 161.50793457 C158.59851074 160.84793457 158.59851074 160.18793457 158.59851074 159.50793457 C165.52851074 159.50793457 172.45851074 159.50793457 179.59851074 159.50793457 C179.69108854 175.47602945 179.76247969 191.44401376 179.80575943 207.41231155 C179.82638871 214.82660302 179.85451605 222.24072472 179.90026855 229.65490723 C179.94012543 236.11678166 179.9659409 242.57853316 179.97486472 249.04052711 C179.98008152 252.46247815 179.99234975 255.88407747 180.02143097 259.30591583 C180.0503609 263.1250974 180.05447093 266.94354433 180.0526123 270.76281738 C180.06699341 271.89857712 180.08137451 273.03433685 180.09619141 274.20451355 C180.09069275 275.24495316 180.08519409 276.28539276 180.07952881 277.35736084 C180.08321598 278.26071796 180.08690315 279.16407509 180.09070206 280.09480667 C179.40858519 283.43910634 178.38577501 284.54957543 175.59851074 286.50793457 C172.98768453 286.89901374 170.79849266 287.04501305 168.19029236 287.00914001 C167.44170127 287.01467441 166.69311019 287.02020881 165.92183453 287.02591091 C163.41194873 287.03953077 160.90305507 287.02454175 158.39318848 287.00964355 C156.59452898 287.01342623 154.7958724 287.01892584 152.9972229 287.02601624 C148.11092698 287.03999389 143.22498225 287.02878532 138.33870578 287.01230502 C133.22983433 286.99847116 128.12098362 287.00491262 123.01210022 287.00843811 C114.43318001 287.0111413 105.85439963 286.99765438 97.2755127 286.9744873 C87.34953626 286.94786843 77.42379352 286.94613276 67.49779361 286.95787567 C57.95739713 286.96864467 48.41708538 286.96247384 38.87669563 286.94832039 C34.81254136 286.94255381 30.74844895 286.94264852 26.68429375 286.94738579 C21.90146874 286.95214869 17.11890055 286.9420825 12.33612442 286.92043114 C10.57808994 286.91485401 8.82003083 286.91440642 7.06199455 286.919384 C4.66762399 286.92531443 2.27404461 286.91287574 -0.12025452 286.89561462 C-1.17111932 286.90462969 -1.17111932 286.90462969 -2.24321371 286.91382688 C-5.08707845 286.8763803 -6.96835515 286.81153225 -9.33401871 285.15336227 C-10.9788701 282.61794427 -10.76029216 280.47121208 -10.74206543 277.47595215 C-10.74183884 276.23489212 -10.74161224 274.99383209 -10.74137878 273.71516418 C-10.72605894 272.36092773 -10.71041095 271.00669496 -10.69445801 269.65246582 C-10.68886177 268.26670287 -10.6845918 266.88093398 -10.68159485 265.49516296 C-10.67014809 261.85030693 -10.64068284 258.20581034 -10.60748291 254.56109619 C-10.57677811 250.84095115 -10.56308867 247.12074796 -10.54797363 243.4005127 C-10.51581257 236.1028229 -10.46461877 228.80542913 -10.40148926 221.50793457 C-9.6056543 221.48287842 -8.80981934 221.45782227 -7.98986816 221.43200684 C-4.33528757 221.31496471 -0.68089751 221.19273495 2.97351074 221.07043457 C4.22519043 221.03111816 5.47687012 220.99180176 6.76647949 220.95129395 C12.28384152 220.76353032 17.73222762 220.53847143 23.21374512 219.86682129 C26.75928277 219.47975187 29.13236379 219.52952945 32.37976074 221.20324707 C33.15432617 221.58754883 33.9288916 221.97185059 34.72692871 222.36779785 C35.50955078 222.78529297 36.29217285 223.20278809 37.09851074 223.63293457 C38.33625244 224.25337646 38.33625244 224.25337646 39.59899902 224.88635254 C43.05193962 226.62473892 46.46277984 228.43537199 49.87194824 230.25793457 C50.73046387 230.71168457 51.58897949 231.16543457 52.47351074 231.63293457 C53.17218262 232.0273877 53.87085449 232.42184082 54.59069824 232.82824707 C57.29883293 233.74500862 58.91355698 233.42064162 61.59851074 232.50793457 C64.09846776 228.75799904 63.81158236 226.82347738 63.76647949 222.34777832 C63.77216359 220.89920406 63.77937582 219.45063515 63.78796387 218.0020752 C63.79211222 215.73292516 63.78630604 213.46558266 63.75305176 211.19665527 C63.64388699 202.38908703 63.82322892 195.63072436 69.8638916 188.61877441 C77.1594639 179.74086898 77.35900784 167.40477154 76.59851074 156.50793457 C73.8196899 142.53013092 65.43513845 131.06022724 53.8260498 123.12414551 C36.87763148 111.96389405 20.5253885 108.26859262 0.52429199 108.43762207 C-0.6266394 108.44269775 -1.7775708 108.44777344 -2.96337891 108.45300293 C-5.77615293 108.46614332 -8.58878475 108.48456942 -11.40148926 108.50793457 C-11.49409174 95.01716045 -11.56520491 81.52646171 -11.60873795 68.03543472 C-11.62962963 61.77127116 -11.65797666 55.50732472 -11.70324707 49.24328613 C-11.74664762 43.20029307 -11.77061445 37.15750911 -11.78099823 31.11437225 C-11.78839995 28.80662493 -11.80285343 26.49888929 -11.82440948 24.19123077 C-11.85336575 20.96353756 -11.85744842 17.73671293 -11.85559082 14.50891113 C-11.87716248 13.07176758 -11.87716248 13.07176758 -11.89916992 11.60559082 C-11.89367126 10.72502014 -11.88817261 9.84444946 -11.88250732 8.93719482 C-11.8861945 8.17395023 -11.88988167 7.41070564 -11.89368057 6.62433243 C-10.42875361 0.32522031 -5.59524512 -0.07156133 0 0 Z " fill="#7248FF" transform="translate(171.4014892578125,112.4920654296875)"/>
<path d="M0 0 C1.57131683 -0.00810448 1.57131683 -0.00810448 3.17437744 -0.01637268 C6.63997578 -0.02888856 10.10474804 -0.01234918 13.5703125 0.00561523 C15.97640018 0.00546031 18.38248812 0.00397249 20.78857422 0.00120544 C25.83246892 -0.00017984 30.87607971 0.01240155 35.91992188 0.03515625 C42.38998737 0.06354087 48.85958098 0.06080509 55.3296814 0.04806614 C60.29846233 0.041116 65.26713391 0.04889071 70.23590088 0.06132317 C72.62176087 0.06584411 75.00763258 0.06616888 77.39349365 0.06225777 C80.72611615 0.05935215 84.05808502 0.07582228 87.390625 0.09765625 C88.37983948 0.0931546 89.36905396 0.08865295 90.38824463 0.08401489 C91.75091461 0.09887184 91.75091461 0.09887184 93.14111328 0.11402893 C93.92865997 0.11645883 94.71620667 0.11888872 95.52761841 0.12139225 C98.30623784 0.60889437 99.68072564 1.54516179 101.6953125 3.50170898 C102.09260216 6.29946421 102.2321693 8.70642095 102.19702148 11.50561523 C102.20512596 12.72799393 102.20512596 12.72799393 102.21339417 13.97506714 C102.22591301 16.67181594 102.20937 19.36750369 102.19140625 22.06420898 C102.19156117 23.93603573 102.1930489 25.8078628 102.19581604 27.6796875 C102.19720145 31.60390389 102.1846184 35.52775542 102.16186523 39.4519043 C102.13348016 44.48613385 102.13621603 49.51975695 102.14895535 54.55403137 C102.15590496 58.4196085 102.14813147 62.28504506 102.13569832 66.15060425 C102.13117683 68.00698305 102.13085309 69.8633769 102.13476372 71.71975708 C102.13766892 74.31275449 102.12120257 76.90491143 102.09936523 79.49780273 C102.10386688 80.26776581 102.10836853 81.03772888 102.11300659 81.83102417 C102.07289936 84.69219733 102.00097636 86.95699547 100.58303833 89.4838562 C97.71998017 91.02760353 95.32590385 90.83431095 92.08764648 90.79125977 C91.42052139 90.78699478 90.7533963 90.7827298 90.0660553 90.77833557 C88.61733362 90.76803493 87.16864658 90.75133544 85.72006035 90.72900772 C83.41905317 90.69670771 81.11910821 90.6880598 78.81788635 90.68673706 C72.27548573 90.68113307 65.73393743 90.65249551 59.19213867 90.56030273 C55.18757355 90.50556872 51.18488328 90.49528997 47.18000984 90.51244736 C45.6614378 90.51051648 44.14278747 90.49225283 42.62463188 90.45663834 C34.85136301 90.27962755 28.99037757 90.42247183 22.94165039 95.87231445 C21.51691048 97.40686921 20.10060962 98.94932948 18.6953125 100.50170898 C16.42667753 102.29647423 14.09558441 103.88413444 11.6953125 105.50170898 C11.66953125 104.74245117 11.64375 103.98319336 11.6171875 103.20092773 C11.56046875 102.20706055 11.50375 101.21319336 11.4453125 100.18920898 C11.39890625 99.20307617 11.3525 98.21694336 11.3046875 97.20092773 C10.89921928 94.47767112 10.89921928 94.47767112 9.21484375 92.67358398 C4.7740748 90.60811006 -0.01218146 91.06607065 -4.83789062 91.06225586 C-5.62228516 91.04356445 -6.40667969 91.02487305 -7.21484375 91.00561523 C-7.92777588 91.00376221 -8.64070801 91.00190918 -9.37524414 91 C-11.3046875 90.50170898 -11.3046875 90.50170898 -12.90002441 88.96543884 C-14.84372746 85.55625178 -14.73178487 82.40311718 -14.70874023 78.58374023 C-14.71560349 77.78978851 -14.72246674 76.99583679 -14.72953796 76.17782593 C-14.74782223 73.55643779 -14.74396665 70.93564713 -14.73828125 68.31420898 C-14.74284192 66.49104619 -14.74814715 64.66788512 -14.75416565 62.84472656 C-14.76309967 59.02491264 -14.76066992 55.20530777 -14.75073242 51.38549805 C-14.73923589 46.48919465 -14.75946305 41.5936117 -14.78864956 36.69740295 C-14.80698942 32.93301813 -14.80672365 29.16880671 -14.80101204 25.40438843 C-14.80085859 23.59905994 -14.80692263 21.79371988 -14.81930351 19.98843384 C-14.83417214 17.46505415 -14.82356825 14.94301529 -14.80639648 12.41967773 C-14.81606445 11.67358246 -14.82573242 10.92748718 -14.83569336 10.15878296 C-14.79082751 7.01229266 -14.46975289 4.7948231 -12.91737366 2.03819275 C-8.7677025 -0.40217015 -4.72835912 -0.04621205 0 0 Z " fill="#7C46FF" transform="translate(297.3046875,169.498291015625)"/>
<path d="M0 0 C1.08796875 0.36351562 2.1759375 0.72703125 3.296875 1.1015625 C10.22745806 3.57677073 16.15437797 6.53523357 22 11 C22.61359375 11.43828125 23.2271875 11.8765625 23.859375 12.328125 C31.69007462 18.35707072 37.96846141 28.43108559 39.3125 38.29296875 C39.69824855 45.87533867 38.14601045 54.46913778 32.98828125 60.2578125 C32.27027344 61.01835937 31.55226563 61.77890625 30.8125 62.5625 C23.68616956 71.42083283 25.83564928 85.22932105 26 96 C22.78758281 94.75717587 19.72273196 93.39761717 16.671875 91.80078125 C15.87136719 91.39666016 15.07085937 90.99253906 14.24609375 90.57617188 C12.5896725 89.73759241 10.94101302 88.88349175 9.30078125 88.01367188 C3.4047931 85.08454496 -0.59235014 84.60558514 -7 86 C-26.91825589 89.70818594 -48.49237471 87.0136745 -65.4375 75.5 C-68.93830543 72.90929231 -72.07859372 70.24600698 -75 67 C-75.49113281 66.50113281 -75.98226562 66.00226563 -76.48828125 65.48828125 C-83.53889371 57.98279056 -85.61350603 50.06737089 -85.47045898 39.90039062 C-85.02392393 29.85037509 -80.94180121 22.15520197 -74 15 C-54.67295968 -2.28808065 -24.69349907 -8.6220318 0 0 Z " fill="#684FFF" transform="translate(198,235)"/>
<path d="M0 0 C0.69875244 0.00247742 1.39750488 0.00495483 2.11743164 0.00750732 C2.85417618 0.00239639 3.59092072 -0.00271454 4.34999084 -0.00798035 C6.79216574 -0.02191206 9.23405955 -0.0209169 11.67626953 -0.01861572 C13.37016404 -0.02250079 15.06405757 -0.02683506 16.75794983 -0.03160095 C20.31140295 -0.03907092 23.86475673 -0.03876636 27.41821289 -0.0335083 C31.97601559 -0.02771358 36.53341193 -0.04464078 41.09114742 -0.06785297 C44.59040207 -0.08257242 48.08955846 -0.08346445 51.58883858 -0.08034325 C53.26939257 -0.08085739 54.94995193 -0.08611262 56.630476 -0.09615517 C58.97926233 -0.1084675 61.32725218 -0.10175979 63.67602539 -0.09014893 C64.3727536 -0.09779266 65.06948181 -0.1054364 65.787323 -0.11331177 C68.64564946 -0.08201958 70.52163999 -0.03055007 72.88941956 1.65309143 C74.46419937 4.04620534 74.44034707 5.47705515 73.96142578 8.28216553 C71.695703 11.33659814 70.49939349 12.19843381 66.69799805 12.7901001 C64.75751587 12.79487366 64.75751587 12.79487366 62.77783203 12.79974365 C62.06190887 12.80675293 61.34598572 12.81376221 60.60836792 12.82098389 C58.24649035 12.838561 55.88581511 12.82694328 53.52392578 12.81341553 C51.88012462 12.81611055 50.23632501 12.81999306 48.5925293 12.82501221 C45.1492595 12.83090683 41.70640507 12.82234581 38.26318359 12.8036499 C33.85108885 12.78085995 29.43996736 12.79398328 25.02790833 12.81793976 C21.63408077 12.83239896 18.24048369 12.82779128 14.84664917 12.81742859 C13.21995936 12.81476162 11.59324857 12.81803005 9.96658325 12.8273468 C7.6921655 12.83751495 5.41932024 12.82201029 3.14501953 12.79974365 C1.85136475 12.79656128 0.55770996 12.79337891 -0.77514648 12.7901001 C-4.03857422 12.28216553 -4.03857422 12.28216553 -6.49536133 10.44512939 C-8.03857422 8.28216553 -8.03857422 8.28216553 -7.91357422 5.15716553 C-6.45167548 0.35378395 -4.75529567 0.05281535 0 0 Z " fill="#FBF9FF" transform="translate(308.03857421875,224.71783447265625)"/>
<path d="M0 0 C0.69875244 0.00247742 1.39750488 0.00495483 2.11743164 0.00750732 C2.85417618 0.00239639 3.59092072 -0.00271454 4.34999084 -0.00798035 C6.79216574 -0.02191206 9.23405955 -0.0209169 11.67626953 -0.01861572 C13.37016404 -0.02250079 15.06405757 -0.02683506 16.75794983 -0.03160095 C20.31140295 -0.03907092 23.86475673 -0.03876636 27.41821289 -0.0335083 C31.97601559 -0.02771358 36.53341193 -0.04464078 41.09114742 -0.06785297 C44.59040207 -0.08257242 48.08955846 -0.08346445 51.58883858 -0.08034325 C53.26939257 -0.08085739 54.94995193 -0.08611262 56.630476 -0.09615517 C58.97926233 -0.1084675 61.32725218 -0.10175979 63.67602539 -0.09014893 C64.3727536 -0.09779266 65.06948181 -0.1054364 65.787323 -0.11331177 C68.64564946 -0.08201958 70.52163999 -0.03055007 72.88941956 1.65309143 C74.46419937 4.04620534 74.44034707 5.47705515 73.96142578 8.28216553 C71.695703 11.33659814 70.49939349 12.19843381 66.69799805 12.7901001 C64.75751587 12.79487366 64.75751587 12.79487366 62.77783203 12.79974365 C62.06190887 12.80675293 61.34598572 12.81376221 60.60836792 12.82098389 C58.24649035 12.838561 55.88581511 12.82694328 53.52392578 12.81341553 C51.88012462 12.81611055 50.23632501 12.81999306 48.5925293 12.82501221 C45.1492595 12.83090683 41.70640507 12.82234581 38.26318359 12.8036499 C33.85108885 12.78085995 29.43996736 12.79398328 25.02790833 12.81793976 C21.63408077 12.83239896 18.24048369 12.82779128 14.84664917 12.81742859 C13.21995936 12.81476162 11.59324857 12.81803005 9.96658325 12.8273468 C7.6921655 12.83751495 5.41932024 12.82201029 3.14501953 12.79974365 C1.85136475 12.79656128 0.55770996 12.79337891 -0.77514648 12.7901001 C-4.03857422 12.28216553 -4.03857422 12.28216553 -6.49536133 10.44512939 C-8.03857422 8.28216553 -8.03857422 8.28216553 -7.91357422 5.15716553 C-6.45167548 0.35378395 -4.75529567 0.05281535 0 0 Z " fill="#FBF9FF" transform="translate(308.03857421875,193.71783447265625)"/>
<path d="M0 0 C4.85857844 2.29678253 7.63468979 5.17840611 10 10 C10.90107455 15.63930927 10.26166412 20.21622595 7 25 C3.29852527 28.64225113 0.13667843 31.13666613 -5.125 31.375 C-10.46262792 31.30612738 -14.03458601 29.5092983 -18 26 C-21.61190831 21.1464982 -21.84750845 15.84685604 -21 10 C-16.59734415 0.85602246 -9.56397657 -1.39682519 0 0 Z " fill="#FCFCFF" transform="translate(142,263)"/>
<path d="M0 0 C4.87995132 2.26569169 7.63239735 5.17373306 10 10 C10.90107455 15.63930927 10.26166412 20.21622595 7 25 C3.25777431 28.68235008 0.13048332 31.13859005 -5.1875 31.3125 C-10.01224425 31.23493176 -13.34627069 30.18991393 -17 27 C-20.73846471 22.20709653 -21.65343382 18.42415138 -21.38671875 12.36328125 C-20.80123397 8.78531869 -19.37485042 6.69577615 -17 4 C-16.34 3.21625 -15.68 2.4325 -15 1.625 C-10.16995299 -0.99127547 -5.36459332 -0.71333805 0 0 Z " fill="#FCFCFF" transform="translate(218,263)"/>
<path d="M0 0 C4.87995132 2.26569169 7.63239735 5.17373306 10 10 C10.90107455 15.63930927 10.26166412 20.21622595 7 25 C3.25777431 28.68235008 0.13048332 31.13859005 -5.1875 31.3125 C-10.01224425 31.23493176 -13.34627069 30.18991393 -17 27 C-20.73846471 22.20709653 -21.65343382 18.42415138 -21.38671875 12.36328125 C-20.80123397 8.78531869 -19.37485042 6.69577615 -17 4 C-16.34 3.21625 -15.68 2.4325 -15 1.625 C-10.16995299 -0.99127547 -5.36459332 -0.71333805 0 0 Z " fill="#FCFCFF" transform="translate(180,263)"/>
<path d="M0 0 C0.85098267 -0.00945648 1.70196533 -0.01891296 2.57873535 -0.02865601 C3.49441284 -0.02258331 4.41009033 -0.01651062 5.35351562 -0.01025391 C6.29658569 -0.01312408 7.23965576 -0.01599426 8.21130371 -0.01895142 C10.20516561 -0.02099287 12.1990475 -0.01545734 14.19287109 -0.00292969 C17.24817607 0.0131227 20.30215814 -0.00277574 23.35742188 -0.02197266 C25.29362272 -0.01999024 27.22982273 -0.0161466 29.16601562 -0.01025391 C30.53953186 -0.01936295 30.53953186 -0.01936295 31.9407959 -0.02865601 C32.79177856 -0.01919952 33.64276123 -0.00974304 34.51953125 0 C35.64180115 0.00358017 35.64180115 0.00358017 36.78674316 0.00723267 C39.32521341 0.49736018 40.21379673 1.34489979 41.75976562 3.38818359 C42.40342608 8.53746726 42.40342608 8.53746726 40.50134277 11.05142212 C38.34256658 12.70840806 37.2198394 12.76775289 34.51953125 12.77636719 C33.66854858 12.78582367 32.81756592 12.79528015 31.9407959 12.80502319 C31.02511841 12.7989505 30.10944092 12.79287781 29.16601562 12.78662109 C28.22294556 12.78949127 27.27987549 12.79236145 26.30822754 12.7953186 C24.31436564 12.79736006 22.32048375 12.79182452 20.32666016 12.77929688 C17.27135518 12.76324448 14.21737311 12.77914292 11.16210938 12.79833984 C9.22590853 12.79635743 7.28970852 12.79251378 5.35351562 12.78662109 C3.97999939 12.79573013 3.97999939 12.79573013 2.57873535 12.80502319 C1.72775269 12.79556671 0.87677002 12.78611023 0 12.77636719 C-1.1222699 12.77278702 -1.1222699 12.77278702 -2.26721191 12.76913452 C-4.80568216 12.27900701 -5.69426548 11.4314674 -7.24023438 9.38818359 C-7.88389483 4.23889993 -7.88389483 4.23889993 -5.98181152 1.72494507 C-3.82303533 0.06795913 -2.70030815 0.00861429 0 0 Z " fill="#FEFDFF" transform="translate(238.240234375,370.61181640625)"/>
<path d="M0 0 C1.2065625 0.0309375 1.2065625 0.0309375 2.4375 0.0625 C3.0625 2.4375 3.0625 2.4375 3.4375 5.0625 C2.7775 5.7225 2.1175 6.3825 1.4375 7.0625 C-0.6875 6.6875 -0.6875 6.6875 -2.5625 6.0625 C-2.94468767 4.40635343 -3.27645102 2.73792976 -3.5625 1.0625 C-2.5625 0.0625 -2.5625 0.0625 0 0 Z " fill="#7858FF" transform="translate(212.5625,274.9375)"/>
<path d="M0 0 C1.2065625 0.0309375 1.2065625 0.0309375 2.4375 0.0625 C3.0625 2.4375 3.0625 2.4375 3.4375 5.0625 C2.7775 5.7225 2.1175 6.3825 1.4375 7.0625 C-0.6875 6.6875 -0.6875 6.6875 -2.5625 6.0625 C-2.94468767 4.40635343 -3.27645102 2.73792976 -3.5625 1.0625 C-2.5625 0.0625 -2.5625 0.0625 0 0 Z " fill="#715BFF" transform="translate(174.5625,274.9375)"/>
<path d="M0 0 C1.2065625 0.0309375 1.2065625 0.0309375 2.4375 0.0625 C3.0625 2.4375 3.0625 2.4375 3.4375 5.0625 C2.7775 5.7225 2.1175 6.3825 1.4375 7.0625 C-0.6875 6.6875 -0.6875 6.6875 -2.5625 6.0625 C-2.94468767 4.40635343 -3.27645102 2.73792976 -3.5625 1.0625 C-2.5625 0.0625 -2.5625 0.0625 0 0 Z " fill="#6A5FFF" transform="translate(136.5625,274.9375)"/>
</svg>
